<svg id="레이어_1" data-name="레이어 1" xmlns="http://www.w3.org/2000/svg" viewBox="0 0 1080 1920"><defs><style>.cls-1{fill:#2390e2;}.cls-2{font-size:36.47px;}.cls-10,.cls-12,.cls-14,.cls-15,.cls-2,.cls-4,.cls-6,.cls-8{font-family:AdobeMyungjoStd-Medium-KSCpc-EUC-H, Adobe Myungjo Std;}.cls-3{fill:#97d5fc;}.cls-4{font-size:32.93px;}.cls-5{fill:#b1d4e5;}.cls-6{font-size:36.89px;}.cls-7{fill:#28d178;}.cls-8{font-size:27.11px;}.cls-9{fill:#109954;}.cls-10{font-size:29.96px;}.cls-11{fill:#86a2ad;}.cls-12{font-size:20.19px;}.cls-13{fill:#9330d8;}.cls-14{font-size:12px;}.cls-15{font-size:109.04px;}</style></defs><title>대지 1</title><rect class="cls-1" width="1080.5" height="119"/><text class="cls-2" transform="translate(461 79.95)">상단 배너</text><rect class="cls-3" y="119" width="1080" height="403"/><text class="cls-4" transform="translate(207 320.09)">이미지. 글마다 메인 이미지가 있음. <tspan x="0" y="39.51">스크롤를 아래로 내리면 사라짐. (브런치 참고)</tspan></text><rect class="cls-5" x="173" y="522" width="734" height="693"/><text class="cls-6" transform="translate(228 890.93)">메인 텍스트 - 사진이나 글이 올라온다.</text><rect class="cls-7" x="173" y="1215" width="734" height="64"/><text class="cls-8" transform="translate(416.73 1258.53) scale(0.94 1)">태그가 표시되는 자리</text><rect class="cls-9" x="107" y="1320" width="224" height="258"/><rect class="cls-9" x="722" y="1320" width="224" height="258"/><rect class="cls-9" x="412" y="1320" width="224" height="258"/><text class="cls-10" transform="translate(132 1468.57)">다른 포스트1</text><text class="cls-10" transform="translate(431 1465.57)">다른 포스트2</text><text class="cls-10" transform="translate(747 1463.57)">다른 포스트3</text><rect class="cls-11" y="522" width="173" height="757"/><text class="cls-12" transform="translate(7.19 726.36)">메뉴가 표시되는<tspan x="0" y="24.23" xml:space="preserve"> 자리. java를 </tspan><tspan x="0" y="48.47">배우면 메뉴 </tspan><tspan x="0" y="72.7">버튼을 눌러야만 </tspan><tspan x="0" y="96.93">뜸.</tspan></text><rect class="cls-13" x="91.41" y="1628" width="897.18" height="265"/><text class="cls-14" transform="translate(337 1707.56)"> </text><text class="cls-15" transform="translate(370.44 1805.52)">댓글창</text></svg>